<svg xmlns="http://www.w3.org/2000/svg" version="1.0" width="200.000000pt" height="200.000000pt" viewBox="0 0 200.000000 200.000000" preserveAspectRatio="xMidYMid meet">

<g transform="translate(0.000000,200.000000) scale(0.100000,-0.100000)" fill="#828282" stroke="none">
<path d="M1481 1451 c-16 -10 -6 -31 14 -31 7 0 23 -12 34 -26 18 -23 21 -41 21 -120 l0 -93 -36 24 c-111 75 -238 17 -284 -131 -52 -170 -1 -378 107 -430 53 -25 130 -24 175 3 l37 22 3 -22 c2 -12 12 -23 23 -26 27 -5 226 60 232 76 3 7 -9 24 -26 39 l-31 26 -2 346 -3 347 -125 3 c-69 1 -131 -2 -139 -7z m53 -330 c14 -16 16 -42 14 -207 -3 -186 -3 -189 -26 -200 -31 -16 -60 -7 -80 24 -14 22 -17 52 -17 172 0 80 3 157 8 172 15 56 67 76 101 39z" fill="#828282"/>
<path d="M390 1380 c-27 -58 -103 -134 -155 -156 -27 -11 -35 -20 -35 -39 0 -21 5 -25 29 -25 l29 0 4 -217 c3 -185 6 -223 21 -250 39 -72 123 -92 210 -49 67 32 106 71 89 88 -10 10 -19 8 -41 -5 -35 -21 -36 -21 -55 -1 -14 13 -16 48 -16 225 l0 209 50 0 c49 0 50 1 50 29 0 27 -3 30 -50 36 l-50 7 0 46 c0 26 -3 71 -6 100 -6 45 -10 52 -29 52 -16 0 -27 -12 -45 -50z" fill="#828282"/>
<path d="M785 1229 c-91 -22 -152 -95 -162 -193 -7 -71 22 -136 79 -173 l39 -26 -41 -24 c-72 -43 -90 -118 -46 -184 l25 -36 -29 -22 c-60 -44 -44 -113 34 -151 90 -43 300 -44 383 -1 129 66 141 226 23 295 -29 18 -58 22 -174 26 -115 4 -141 8 -149 22 -21 32 8 48 90 48 107 0 158 16 208 64 65 63 83 156 45 231 -27 52 -26 55 15 55 32 0 35 3 35 29 l0 28 -107 6 c-60 4 -135 9 -168 11 -33 3 -78 1 -100 -5z m119 -54 c25 -26 38 -95 34 -177 -5 -88 -25 -128 -63 -128 -38 0 -58 40 -63 128 -6 111 21 192 63 192 7 0 21 -7 29 -15z m76 -633 c42 -20 49 -50 20 -77 -27 -25 -155 -34 -201 -15 -61 25 -59 81 4 99 54 16 139 13 177 -7z" fill="#828282"/>
</g>
</svg>